# xmcd
#
# Track frame offsets:
#	150
#	17690
#	36037
#	59421
#	82316
#	99416
#	117171
#	136950
#	154280
#	170425
#	185864
#	203382
#	223220
#
# Disc length: 3249 seconds
#
# Revision: 1
# Processed by: cddbd v1.5.2PL0 Copyright (c) Steve Scherf et al.
# Submitted via: EasyCDDAExtractor 15.2.5.1
#
DISCID=b80caf0d
DTITLE=The Floacist - Presents Floetic Soul
DYEAR=2011
DGENRE=R&B
TTITLE0=Breathe
TTITLE1=Keep It Giong (feat Raheem DeVaughn)
TTITLE2=Need You
TTITLE3=Forever (feat Musiq Soulchild)
TTITLE4=You
TTITLE5=Come Over (feat Lalah Hathaway)
TTITLE6=What R U Looking For?
TTITLE7=What U Gonna Do?
TTITLE8=Go Get It
TTITLE9=Overtime
TTITLE10=Let Me
TTITLE11=The Stand
TTITLE12=Alright Then
EXTD=
EXTT0=
EXTT1=
EXTT2=
EXTT3=
EXTT4=
EXTT5=
EXTT6=
EXTT7=
EXTT8=
EXTT9=
EXTT10=
EXTT11=
EXTT12=
PLAYORDER=
